<?xml version="1.0" standalone="no"?>
<svg xmlns="http://www.w3.org/2000/svg" id="svg-schematic" width="750" height="465" viewBox="0 0 150 93"><style type="text/css">
#svg-schematic text {
  fill: #2d3142;
  font-weight: 400;
  font-family: "Nunito", sans-serif;
}

#svg-schematic text.component-reference,
#svg-schematic text.component-value {
  font-weight: 600;
}


#svg-schematic .wireGroup path,
#svg-schematic path.wire {
  stroke: #2d3142;
  stroke-width: 0.75;
  stroke-linecap: round;
  fill: none;
}
// For debugging
#svg-schematic path.wire.temporary_wire {
  stroke: #f7a541 !important;
}</style><g class="circuit-contents schematic" transform="translate(-2405, -2175)"><g data-source-id="j5j63jpgvcygga5c2x6" data-source-name="Resistor" data-width="10" data-height="40" class="component" id="part_22" transform="translate(2440,2180) scale(1,1) rotate(0,0,0)"><rect class="helper-box" x="0.8775146007537842" y="3.5" width="8.244993209838867" height="33" fill="none"/>
 <g transform="translate(-1.25,5)">
  <path d="m6.25 7.5v-7.5" fill="none" stroke="#2d3142" stroke-miterlimit="10" stroke-width=".75"/>
  <path d="m6.3451 22.137c-0.82502-0.233-1.65-0.466-2.4751-0.699-0.1457-0.04115-0.91704-0.37485-1.0524-0.29723-0.22025 0.12627-0.03683 0.18539 0.04589 0.20508 0.07197 0.01713 0.23259-0.06569 0.30361-0.08575l5.8212-1.644c0.47719-0.13477 1.4367-0.22791 1.3805-0.91386-0.05128-0.62594-0.99659-0.71031-1.4656-0.84277l-5.7921-1.6358c-0.05528-0.01561-0.20777-0.09188-0.26155-0.07387-0.08535 0.02858-0.16663 0.14157-0.03211 0.20904 0.10292 0.05162 0.57696-0.16294 0.68529-0.19354l5.8969-1.6654c0.16501-0.0466 0.34514-0.07869 0.50456-0.1425 0.44779-0.17922 0.66119-0.74707 0.23672-1.0918-0.40996-0.3329-1.2178-0.40061-1.7034-0.53778l-4.693-1.3254c-0.22309-0.06301-0.61821-0.26583-0.85074-0.24026-0.0202 0.00222-0.06908-0.03381-0.08525-0.02408-0.01198 0.00721-0.05661 0.20294-0.02105 0.22918 0.0232 0.01711 0.15015-0.04893 0.18032-0.05092 0.32101-0.02124 0.68915-0.19463 0.9979-0.28182 1.9042-0.53779 3.8137-1.0598 5.7133-1.6135 0.2306-0.06721 0.4555-0.11814 0.59459-0.34093 0.24895-0.39878-0.0042-0.80187-0.40089-0.94691-0.87283-0.31914-1.8138-0.51224-2.7081-0.76481l-0.81941-0.23142c-0.46454-0.1312-0.65572 0.59414-0.19026 0.72559 0.82502 0.233 1.65 0.466 2.4751 0.699 0.1457 0.04115 0.91704 0.37485 1.0524 0.29723 0.22025-0.12627 0.03683-0.18539-0.04589-0.20508-0.07197-0.01713-0.23259 0.06569-0.30361 0.08575l-5.8212 1.644c-0.47719 0.13477-1.4367 0.22791-1.3805 0.91386 0.05128 0.62594 0.99659 0.71031 1.4656 0.84277l5.7921 1.6358c0.05528 0.01561 0.20777 0.09188 0.26155 0.07387 0.08535-0.02858 0.16663-0.14157 0.03211-0.20904-0.10292-0.05162-0.57696 0.16294-0.68529 0.19354l-5.8969 1.6654c-0.16501 0.0466-0.34514 0.07869-0.50456 0.1425-0.44779 0.17922-0.66119 0.74707-0.23672 1.0918 0.40996 0.3329 1.2178 0.40061 1.7034 0.53778l4.693 1.3254c0.22309 0.06301 0.61821 0.26583 0.85074 0.24026 0.0202-0.0022 0.06908 0.03381 0.08525 0.02408 0.01198-0.0072 0.05661-0.20294 0.02105-0.22918-0.0232-0.01711-0.15015 0.04893-0.18032 0.05092-0.32101 0.02124-0.68915 0.19463-0.9979 0.28182-1.9042 0.53779-3.8137 1.0598-5.7133 1.6135-0.2306 0.06721-0.4555 0.11814-0.59459 0.34093-0.24895 0.39878 0.0042 0.80187 0.40089 0.94691 0.87283 0.31914 1.8138 0.51224 2.7081 0.76481l0.81941 0.23142c0.46454 0.1312 0.65572-0.59414 0.19026-0.72559z" fill="#2d3142"/>
  <path d="m6.25 30v-7.5" fill="none" stroke="#2d3142" stroke-miterlimit="10" stroke-width=".75"/>
 </g>
 
 
<text class="component-reference component-text moveable-text locked" font-size="4.5px" x="10" y="19" direction="" flipped="" style="">R1</text><text class="component-value component-text moveable-text locked" font-size="4.5px" x="10" y="24" direction="" flipped="" style="">1000Ω</text></g><g data-source-id="j5j63jpgvcygga5c2x6" data-source-name="Resistor" data-width="10" data-height="40" class="component" id="part_23" transform="translate(2470,2180) scale(1,1) rotate(0,0,0)"><rect class="helper-box" x="0.8775146007537842" y="3.5" width="8.244993209838867" height="33" fill="none"/>
 <g transform="translate(-1.25,5)">
  <path d="m6.25 7.5v-7.5" fill="none" stroke="#2d3142" stroke-miterlimit="10" stroke-width=".75"/>
  <path d="m6.3451 22.137c-0.82502-0.233-1.65-0.466-2.4751-0.699-0.1457-0.04115-0.91704-0.37485-1.0524-0.29723-0.22025 0.12627-0.03683 0.18539 0.04589 0.20508 0.07197 0.01713 0.23259-0.06569 0.30361-0.08575l5.8212-1.644c0.47719-0.13477 1.4367-0.22791 1.3805-0.91386-0.05128-0.62594-0.99659-0.71031-1.4656-0.84277l-5.7921-1.6358c-0.05528-0.01561-0.20777-0.09188-0.26155-0.07387-0.08535 0.02858-0.16663 0.14157-0.03211 0.20904 0.10292 0.05162 0.57696-0.16294 0.68529-0.19354l5.8969-1.6654c0.16501-0.0466 0.34514-0.07869 0.50456-0.1425 0.44779-0.17922 0.66119-0.74707 0.23672-1.0918-0.40996-0.3329-1.2178-0.40061-1.7034-0.53778l-4.693-1.3254c-0.22309-0.06301-0.61821-0.26583-0.85074-0.24026-0.0202 0.00222-0.06908-0.03381-0.08525-0.02408-0.01198 0.00721-0.05661 0.20294-0.02105 0.22918 0.0232 0.01711 0.15015-0.04893 0.18032-0.05092 0.32101-0.02124 0.68915-0.19463 0.9979-0.28182 1.9042-0.53779 3.8137-1.0598 5.7133-1.6135 0.2306-0.06721 0.4555-0.11814 0.59459-0.34093 0.24895-0.39878-0.0042-0.80187-0.40089-0.94691-0.87283-0.31914-1.8138-0.51224-2.7081-0.76481l-0.81941-0.23142c-0.46454-0.1312-0.65572 0.59414-0.19026 0.72559 0.82502 0.233 1.65 0.466 2.4751 0.699 0.1457 0.04115 0.91704 0.37485 1.0524 0.29723 0.22025-0.12627 0.03683-0.18539-0.04589-0.20508-0.07197-0.01713-0.23259 0.06569-0.30361 0.08575l-5.8212 1.644c-0.47719 0.13477-1.4367 0.22791-1.3805 0.91386 0.05128 0.62594 0.99659 0.71031 1.4656 0.84277l5.7921 1.6358c0.05528 0.01561 0.20777 0.09188 0.26155 0.07387 0.08535-0.02858 0.16663-0.14157 0.03211-0.20904-0.10292-0.05162-0.57696 0.16294-0.68529 0.19354l-5.8969 1.6654c-0.16501 0.0466-0.34514 0.07869-0.50456 0.1425-0.44779 0.17922-0.66119 0.74707-0.23672 1.0918 0.40996 0.3329 1.2178 0.40061 1.7034 0.53778l4.693 1.3254c0.22309 0.06301 0.61821 0.26583 0.85074 0.24026 0.0202-0.0022 0.06908 0.03381 0.08525 0.02408 0.01198-0.0072 0.05661-0.20294 0.02105-0.22918-0.0232-0.01711-0.15015 0.04893-0.18032 0.05092-0.32101 0.02124-0.68915 0.19463-0.9979 0.28182-1.9042 0.53779-3.8137 1.0598-5.7133 1.6135-0.2306 0.06721-0.4555 0.11814-0.59459 0.34093-0.24895 0.39878 0.0042 0.80187 0.40089 0.94691 0.87283 0.31914 1.8138 0.51224 2.7081 0.76481l0.81941 0.23142c0.46454 0.1312 0.65572-0.59414 0.19026-0.72559z" fill="#2d3142"/>
  <path d="m6.25 30v-7.5" fill="none" stroke="#2d3142" stroke-miterlimit="10" stroke-width=".75"/>
 </g>
 
 
<text class="component-reference component-text moveable-text locked" font-size="4.5px" x="10" y="19" direction="" flipped="" style="">R2</text><text class="component-value component-text moveable-text locked" font-size="4.5px" x="10" y="24" direction="" flipped="" style="">1000Ω</text></g><g data-source-id="j5j63jpgvcygga5c2x6" data-source-name="Resistor" data-width="10" data-height="40" class="component" id="part_24" transform="translate(2500,2180) scale(1,1) rotate(0,0,0)"><rect class="helper-box" x="0.8775146007537842" y="3.5" width="8.244993209838867" height="33" fill="none"/>
 <g transform="translate(-1.25,5)">
  <path d="m6.25 7.5v-7.5" fill="none" stroke="#2d3142" stroke-miterlimit="10" stroke-width=".75"/>
  <path d="m6.3451 22.137c-0.82502-0.233-1.65-0.466-2.4751-0.699-0.1457-0.04115-0.91704-0.37485-1.0524-0.29723-0.22025 0.12627-0.03683 0.18539 0.04589 0.20508 0.07197 0.01713 0.23259-0.06569 0.30361-0.08575l5.8212-1.644c0.47719-0.13477 1.4367-0.22791 1.3805-0.91386-0.05128-0.62594-0.99659-0.71031-1.4656-0.84277l-5.7921-1.6358c-0.05528-0.01561-0.20777-0.09188-0.26155-0.07387-0.08535 0.02858-0.16663 0.14157-0.03211 0.20904 0.10292 0.05162 0.57696-0.16294 0.68529-0.19354l5.8969-1.6654c0.16501-0.0466 0.34514-0.07869 0.50456-0.1425 0.44779-0.17922 0.66119-0.74707 0.23672-1.0918-0.40996-0.3329-1.2178-0.40061-1.7034-0.53778l-4.693-1.3254c-0.22309-0.06301-0.61821-0.26583-0.85074-0.24026-0.0202 0.00222-0.06908-0.03381-0.08525-0.02408-0.01198 0.00721-0.05661 0.20294-0.02105 0.22918 0.0232 0.01711 0.15015-0.04893 0.18032-0.05092 0.32101-0.02124 0.68915-0.19463 0.9979-0.28182 1.9042-0.53779 3.8137-1.0598 5.7133-1.6135 0.2306-0.06721 0.4555-0.11814 0.59459-0.34093 0.24895-0.39878-0.0042-0.80187-0.40089-0.94691-0.87283-0.31914-1.8138-0.51224-2.7081-0.76481l-0.81941-0.23142c-0.46454-0.1312-0.65572 0.59414-0.19026 0.72559 0.82502 0.233 1.65 0.466 2.4751 0.699 0.1457 0.04115 0.91704 0.37485 1.0524 0.29723 0.22025-0.12627 0.03683-0.18539-0.04589-0.20508-0.07197-0.01713-0.23259 0.06569-0.30361 0.08575l-5.8212 1.644c-0.47719 0.13477-1.4367 0.22791-1.3805 0.91386 0.05128 0.62594 0.99659 0.71031 1.4656 0.84277l5.7921 1.6358c0.05528 0.01561 0.20777 0.09188 0.26155 0.07387 0.08535-0.02858 0.16663-0.14157 0.03211-0.20904-0.10292-0.05162-0.57696 0.16294-0.68529 0.19354l-5.8969 1.6654c-0.16501 0.0466-0.34514 0.07869-0.50456 0.1425-0.44779 0.17922-0.66119 0.74707-0.23672 1.0918 0.40996 0.3329 1.2178 0.40061 1.7034 0.53778l4.693 1.3254c0.22309 0.06301 0.61821 0.26583 0.85074 0.24026 0.0202-0.0022 0.06908 0.03381 0.08525 0.02408 0.01198-0.0072 0.05661-0.20294 0.02105-0.22918-0.0232-0.01711-0.15015 0.04893-0.18032 0.05092-0.32101 0.02124-0.68915 0.19463-0.9979 0.28182-1.9042 0.53779-3.8137 1.0598-5.7133 1.6135-0.2306 0.06721-0.4555 0.11814-0.59459 0.34093-0.24895 0.39878 0.0042 0.80187 0.40089 0.94691 0.87283 0.31914 1.8138 0.51224 2.7081 0.76481l0.81941 0.23142c0.46454 0.1312 0.65572-0.59414 0.19026-0.72559z" fill="#2d3142"/>
  <path d="m6.25 30v-7.5" fill="none" stroke="#2d3142" stroke-miterlimit="10" stroke-width=".75"/>
 </g>
 
 
<text class="component-reference component-text moveable-text locked" font-size="4.5px" x="10" y="19" direction="" flipped="" style="">R3</text><text class="component-value component-text moveable-text locked" font-size="4.5px" x="10" y="24" direction="" flipped="" style="">1000Ω</text></g><g data-source-id="j5j63jpgvcygga5c2x6" data-source-name="Resistor" data-width="10" data-height="40" class="component" id="part_25" transform="translate(2455,2210) scale(1,1) rotate(0,0,0)"><rect class="helper-box" x="0.8775146007537842" y="3.5" width="8.244993209838867" height="33" fill="none"/>
 <g transform="translate(-1.25,5)">
  <path d="m6.25 7.5v-7.5" fill="none" stroke="#2d3142" stroke-miterlimit="10" stroke-width=".75"/>
  <path d="m6.3451 22.137c-0.82502-0.233-1.65-0.466-2.4751-0.699-0.1457-0.04115-0.91704-0.37485-1.0524-0.29723-0.22025 0.12627-0.03683 0.18539 0.04589 0.20508 0.07197 0.01713 0.23259-0.06569 0.30361-0.08575l5.8212-1.644c0.47719-0.13477 1.4367-0.22791 1.3805-0.91386-0.05128-0.62594-0.99659-0.71031-1.4656-0.84277l-5.7921-1.6358c-0.05528-0.01561-0.20777-0.09188-0.26155-0.07387-0.08535 0.02858-0.16663 0.14157-0.03211 0.20904 0.10292 0.05162 0.57696-0.16294 0.68529-0.19354l5.8969-1.6654c0.16501-0.0466 0.34514-0.07869 0.50456-0.1425 0.44779-0.17922 0.66119-0.74707 0.23672-1.0918-0.40996-0.3329-1.2178-0.40061-1.7034-0.53778l-4.693-1.3254c-0.22309-0.06301-0.61821-0.26583-0.85074-0.24026-0.0202 0.00222-0.06908-0.03381-0.08525-0.02408-0.01198 0.00721-0.05661 0.20294-0.02105 0.22918 0.0232 0.01711 0.15015-0.04893 0.18032-0.05092 0.32101-0.02124 0.68915-0.19463 0.9979-0.28182 1.9042-0.53779 3.8137-1.0598 5.7133-1.6135 0.2306-0.06721 0.4555-0.11814 0.59459-0.34093 0.24895-0.39878-0.0042-0.80187-0.40089-0.94691-0.87283-0.31914-1.8138-0.51224-2.7081-0.76481l-0.81941-0.23142c-0.46454-0.1312-0.65572 0.59414-0.19026 0.72559 0.82502 0.233 1.65 0.466 2.4751 0.699 0.1457 0.04115 0.91704 0.37485 1.0524 0.29723 0.22025-0.12627 0.03683-0.18539-0.04589-0.20508-0.07197-0.01713-0.23259 0.06569-0.30361 0.08575l-5.8212 1.644c-0.47719 0.13477-1.4367 0.22791-1.3805 0.91386 0.05128 0.62594 0.99659 0.71031 1.4656 0.84277l5.7921 1.6358c0.05528 0.01561 0.20777 0.09188 0.26155 0.07387 0.08535-0.02858 0.16663-0.14157 0.03211-0.20904-0.10292-0.05162-0.57696 0.16294-0.68529 0.19354l-5.8969 1.6654c-0.16501 0.0466-0.34514 0.07869-0.50456 0.1425-0.44779 0.17922-0.66119 0.74707-0.23672 1.0918 0.40996 0.3329 1.2178 0.40061 1.7034 0.53778l4.693 1.3254c0.22309 0.06301 0.61821 0.26583 0.85074 0.24026 0.0202-0.0022 0.06908 0.03381 0.08525 0.02408 0.01198-0.0072 0.05661-0.20294 0.02105-0.22918-0.0232-0.01711-0.15015 0.04893-0.18032 0.05092-0.32101 0.02124-0.68915 0.19463-0.9979 0.28182-1.9042 0.53779-3.8137 1.0598-5.7133 1.6135-0.2306 0.06721-0.4555 0.11814-0.59459 0.34093-0.24895 0.39878 0.0042 0.80187 0.40089 0.94691 0.87283 0.31914 1.8138 0.51224 2.7081 0.76481l0.81941 0.23142c0.46454 0.1312 0.65572-0.59414 0.19026-0.72559z" fill="#2d3142"/>
  <path d="m6.25 30v-7.5" fill="none" stroke="#2d3142" stroke-miterlimit="10" stroke-width=".75"/>
 </g>
 
 
<text class="component-reference component-text moveable-text locked" font-size="4.5px" x="10" y="19" direction="" flipped="" style="">R4</text><text class="component-value component-text moveable-text locked" font-size="4.5px" x="10" y="24" direction="" flipped="" style="">1000Ω</text></g><g data-source-id="j5j63jpgvcygga5c2x6" data-source-name="Resistor" data-width="10" data-height="40" class="component" id="part_26" transform="translate(2485,2210) scale(1,1) rotate(0,0,0)"><rect class="helper-box" x="0.8775146007537842" y="3.5" width="8.244993209838867" height="33" fill="none"/>
 <g transform="translate(-1.25,5)">
  <path d="m6.25 7.5v-7.5" fill="none" stroke="#2d3142" stroke-miterlimit="10" stroke-width=".75"/>
  <path d="m6.3451 22.137c-0.82502-0.233-1.65-0.466-2.4751-0.699-0.1457-0.04115-0.91704-0.37485-1.0524-0.29723-0.22025 0.12627-0.03683 0.18539 0.04589 0.20508 0.07197 0.01713 0.23259-0.06569 0.30361-0.08575l5.8212-1.644c0.47719-0.13477 1.4367-0.22791 1.3805-0.91386-0.05128-0.62594-0.99659-0.71031-1.4656-0.84277l-5.7921-1.6358c-0.05528-0.01561-0.20777-0.09188-0.26155-0.07387-0.08535 0.02858-0.16663 0.14157-0.03211 0.20904 0.10292 0.05162 0.57696-0.16294 0.68529-0.19354l5.8969-1.6654c0.16501-0.0466 0.34514-0.07869 0.50456-0.1425 0.44779-0.17922 0.66119-0.74707 0.23672-1.0918-0.40996-0.3329-1.2178-0.40061-1.7034-0.53778l-4.693-1.3254c-0.22309-0.06301-0.61821-0.26583-0.85074-0.24026-0.0202 0.00222-0.06908-0.03381-0.08525-0.02408-0.01198 0.00721-0.05661 0.20294-0.02105 0.22918 0.0232 0.01711 0.15015-0.04893 0.18032-0.05092 0.32101-0.02124 0.68915-0.19463 0.9979-0.28182 1.9042-0.53779 3.8137-1.0598 5.7133-1.6135 0.2306-0.06721 0.4555-0.11814 0.59459-0.34093 0.24895-0.39878-0.0042-0.80187-0.40089-0.94691-0.87283-0.31914-1.8138-0.51224-2.7081-0.76481l-0.81941-0.23142c-0.46454-0.1312-0.65572 0.59414-0.19026 0.72559 0.82502 0.233 1.65 0.466 2.4751 0.699 0.1457 0.04115 0.91704 0.37485 1.0524 0.29723 0.22025-0.12627 0.03683-0.18539-0.04589-0.20508-0.07197-0.01713-0.23259 0.06569-0.30361 0.08575l-5.8212 1.644c-0.47719 0.13477-1.4367 0.22791-1.3805 0.91386 0.05128 0.62594 0.99659 0.71031 1.4656 0.84277l5.7921 1.6358c0.05528 0.01561 0.20777 0.09188 0.26155 0.07387 0.08535-0.02858 0.16663-0.14157 0.03211-0.20904-0.10292-0.05162-0.57696 0.16294-0.68529 0.19354l-5.8969 1.6654c-0.16501 0.0466-0.34514 0.07869-0.50456 0.1425-0.44779 0.17922-0.66119 0.74707-0.23672 1.0918 0.40996 0.3329 1.2178 0.40061 1.7034 0.53778l4.693 1.3254c0.22309 0.06301 0.61821 0.26583 0.85074 0.24026 0.0202-0.0022 0.06908 0.03381 0.08525 0.02408 0.01198-0.0072 0.05661-0.20294 0.02105-0.22918-0.0232-0.01711-0.15015 0.04893-0.18032 0.05092-0.32101 0.02124-0.68915 0.19463-0.9979 0.28182-1.9042 0.53779-3.8137 1.0598-5.7133 1.6135-0.2306 0.06721-0.4555 0.11814-0.59459 0.34093-0.24895 0.39878 0.0042 0.80187 0.40089 0.94691 0.87283 0.31914 1.8138 0.51224 2.7081 0.76481l0.81941 0.23142c0.46454 0.1312 0.65572-0.59414 0.19026-0.72559z" fill="#2d3142"/>
  <path d="m6.25 30v-7.5" fill="none" stroke="#2d3142" stroke-miterlimit="10" stroke-width=".75"/>
 </g>
 
 
<text class="component-reference component-text moveable-text locked" font-size="4.5px" x="10" y="19" direction="" flipped="" style="">R5</text><text class="component-value component-text moveable-text locked" font-size="4.5px" x="10" y="24" direction="" flipped="" style="">1000Ω</text></g><path class="wire" d="M2445,2215 H2460" id="wire_segment27"/><path class="wire" d="M2460,2215 H2475" id="wire_segment27-0"/><path class="wire" d="M2475,2215 H2490" id="wire_segment27-0-0"/><path class="wire" d="M2490,2215 H2505" id="wire_segment27-0-0-0"/><path class="wire" d="M2505,2215 H2530" id="wire_segment27-0-0-0-0"/><path class="wire" d="M2415,2245 H2460" id="wire_segment35"/><path class="wire" d="M2460,2245 H2490" id="wire_segment35-0"/><path class="wire" d="M2490,2245 H2530" id="wire_segment35-0-0"/><path class="wire" d="M2415,2185 H2445" id="wire_segment37"/><path class="wire" d="M2445,2185 H2475" id="wire_segment37-0"/><path class="wire" d="M2475,2185 H2505" id="wire_segment37-0-0"/><text class="moveable-text textObject" font-family="Nunito-Medium, Nunito" font-size="8px" fill="#2d3142" x="-4.688485947416211" y="5.409791477788076" transform="translate(2528.981142339075, 2226.5835902085223) scale(1,1) rotate(0,0,0)" id="sch_text_41">3V</text><text class="moveable-text textObject" font-family="Nunito-Medium, Nunito" font-size="8px" fill="#2d3142" x="3.9671804170448013" y="0" transform="translate(2408.883771532185, 2217.567271078876) scale(1,1) rotate(0,0,0)" id="sch_text_42">5V</text><circle cx="2460" cy="2215" r="1.5" class="blob" fill="#2d3142"/><circle cx="2475" cy="2215" r="1.5" class="blob" fill="#2d3142"/><circle cx="2490" cy="2215" r="1.5" class="blob" fill="#2d3142"/><circle cx="2505" cy="2215" r="1.5" class="blob" fill="#2d3142"/><circle cx="2460" cy="2245" r="1.5" class="blob" fill="#2d3142"/><circle cx="2490" cy="2245" r="1.5" class="blob" fill="#2d3142"/><circle cx="2445" cy="2185" r="1.5" class="blob" fill="#2d3142"/><circle cx="2475" cy="2185" r="1.5" class="blob" fill="#2d3142"/></g><g transform="translate(37.5, 80) scale(0.5)" opacity="0.35">
</g></svg>